<svg xmlns="http://www.w3.org/2000/svg" viewBox="0 0 1200 400">
  <defs>
    <style>
      .logo-text { fill: #FFFFFF; font-family: Arial, sans-serif; font-weight: bold; letter-spacing: 2; }
      .logo-accent { fill: #C8FF00; }
      .logo-icon { stroke: #C8FF00; stroke-width: 2; fill: none; }
    </style>
  </defs>

  <!-- LOGO 1: Full Wordmark SVG (Horizontal) -->
  <g id="wordmark-horizontal" transform="translate(50, 50)">
    <!-- Icon: Pill + Checkmark -->
    <g transform="translate(0, 0)">
      <!-- Pill shape -->
      <ellipse cx="8" cy="20" rx="4" ry="8" class="logo-icon"/>
      <ellipse cx="16" cy="20" rx="4" ry="8" class="logo-icon"/>
      <rect x="8" y="12" width="8" height="16" class="logo-icon"/>
      
      <!-- Checkmark overlay -->
      <path d="M 6 22 L 10 26 L 18 14" class="logo-icon" stroke-linecap="round" stroke-linejoin="round"/>
    </g>
    
    <!-- Text: DOSE OF PROOF -->
    <text x="30" y="25" class="logo-text" font-size="20">DOSE OF PROOF</text>
  </g>

  <!-- LOGO 2: Icon-Only SVG (Pill + Checkmark Mark) -->
  <g id="icon-only" transform="translate(350, 50)">
    <!-- Larger pill icon -->
    <g transform="translate(0, 0)">
      <!-- Pill shape -->
      <ellipse cx="15" cy="30" rx="6" ry="12" class="logo-icon"/>
      <ellipse cx="30" cy="30" rx="6" ry="12" class="logo-icon"/>
      <rect x="15" y="18" width="15" height="24" class="logo-icon"/>
      
      <!-- Checkmark -->
      <path d="M 10 35 L 16 42 L 32 20" class="logo-icon" stroke-linecap="round" stroke-linejoin="round" stroke-width="3"/>
    </g>
    
    <!-- Label -->
    <text x="10" y="70" class="logo-text" font-size="12" text-anchor="middle">PROOF MARK</text>
  </g>

  <!-- LOGO 3: Stacked Logo SVG (For Mobile Nav / Profile) -->
  <g id="stacked-logo" transform="translate(650, 30)">
    <!-- Icon -->
    <g transform="translate(0, 0)">
      <!-- Pill shape -->
      <ellipse cx="12" cy="12" rx="5" ry="10" class="logo-icon"/>
      <ellipse cx="24" cy="12" rx="5" ry="10" class="logo-icon"/>
      <rect x="12" y="2" width="12" height="20" class="logo-icon"/>
      
      <!-- Checkmark -->
      <path d="M 8 16 L 13 22 L 26 10" class="logo-icon" stroke-linecap="round" stroke-linejoin="round" stroke-width="2.5"/>
    </g>
    
    <!-- Stacked text -->
    <text x="18" y="50" class="logo-text" font-size="14" text-anchor="middle">DOSE</text>
    <text x="18" y="70" class="logo-text" font-size="14" text-anchor="middle">OF</text>
    <text x="18" y="90" class="logo-text" font-size="14" text-anchor="middle">PROOF</text>
  </g>

  <!-- LOGO 4: Wordmark with Tagline -->
  <g id="wordmark-with-tagline" transform="translate(50, 180)">
    <!-- Main wordmark -->
    <text x="0" y="30" class="logo-text" font-size="24">DOSE OF PROOF</text>
    
    <!-- Tagline -->
    <text x="0" y="50" class="logo-text" font-size="12" opacity="0.7" letter-spacing="1">Real stories. Real proof.</text>
    
    <!-- Accent line -->
    <line x1="0" y1="60" x2="200" y2="60" stroke="#C8FF00" stroke-width="2"/>
  </g>

  <!-- LOGO 5: Icon Badge (Circular) -->
  <g id="icon-badge" transform="translate(350, 180)">
    <!-- Outer circle -->
    <circle cx="30" cy="30" r="28" class="logo-icon"/>
    
    <!-- Inner circle -->
    <circle cx="30" cy="30" r="22" class="logo-icon" stroke-width="1"/>
    
    <!-- Pill icon inside -->
    <g transform="translate(22, 20)">
      <ellipse cx="6" cy="10" rx="3" ry="6" class="logo-icon" stroke-width="1.5"/>
      <ellipse cx="14" cy="10" rx="3" ry="6" class="logo-icon" stroke-width="1.5"/>
      <rect x="6" y="4" width="8" height="12" class="logo-icon" stroke-width="1.5"/>
      
      <!-- Checkmark -->
      <path d="M 4 13 L 8 17 L 16 8" class="logo-icon" stroke-linecap="round" stroke-linejoin="round" stroke-width="2"/>
    </g>
    
    <!-- Badge text -->
    <text x="30" y="75" class="logo-text" font-size="11" text-anchor="middle">VERIFIED</text>
  </g>

  <!-- LOGO 6: Minimal Mark (Icon Only, Simplified) -->
  <g id="minimal-mark" transform="translate(650, 180)">
    <!-- Simplified pill -->
    <rect x="15" y="10" width="10" height="20" rx="5" class="logo-icon" stroke-width="2"/>
    
    <!-- Checkmark -->
    <path d="M 12 22 L 16 26 L 24 16" class="logo-icon" stroke-linecap="round" stroke-linejoin="round" stroke-width="2.5"/>
    
    <!-- Label -->
    <text x="30" y="35" class="logo-text" font-size="12">PROOF</text>
  </g>

  <!-- LOGO 7: Horizontal Lock-up (Icon + Text Aligned) -->
  <g id="horizontal-lockup" transform="translate(50, 300)">
    <!-- Icon -->
    <g transform="translate(0, 0)">
      <ellipse cx="8" cy="12" rx="3" ry="7" class="logo-icon"/>
      <ellipse cx="14" cy="12" rx="3" ry="7" class="logo-icon"/>
      <rect x="8" y="5" width="6" height="14" class="logo-icon"/>
      <path d="M 5 14 L 8 17 L 14 10" class="logo-icon" stroke-linecap="round" stroke-linejoin="round" stroke-width="1.5"/>
    </g>
    
    <!-- Text -->
    <text x="25" y="18" class="logo-text" font-size="16">DOSE OF PROOF</text>
  </g>

  <!-- LOGO 8: Monogram (D + P) -->
  <g id="monogram" transform="translate(350, 300)">
    <!-- Background circle -->
    <circle cx="20" cy="20" r="18" class="logo-icon"/>
    
    <!-- D -->
    <text x="8" y="28" class="logo-text" font-size="20">D</text>
    
    <!-- P -->
    <text x="20" y="28" class="logo-text" font-size="20">P</text>
  </g>

  <!-- LOGO 9: Wordmark Compact (For Small Spaces) -->
  <g id="wordmark-compact" transform="translate(650, 300)">
    <text x="0" y="20" class="logo-text" font-size="14">DOSE OF PROOF</text>
    <line x1="0" y1="25" x2="100" y2="25" stroke="#C8FF00" stroke-width="1.5"/>
  </g>

</svg>
