<svg xmlns="http://www.w3.org/2000/svg" viewBox="0 0 1200 800">
  <defs>
    <style>
      .diagram-text { fill: #FFFFFF; font-family: Arial, sans-serif; font-size: 12px; }
      .diagram-label { fill: #FFD60A; font-family: Arial, sans-serif; font-size: 11px; font-weight: bold; }
      .diagram-line { stroke: #FFD60A; stroke-width: 2; fill: none; }
      .diagram-box { stroke: #FFD60A; stroke-width: 1.5; fill: none; }
      .diagram-arrow { stroke: #FFD60A; stroke-width: 2; fill: none; marker-end: url(#arrowhead); }
      .step-circle { fill: #0D0D0D; stroke: #FFD60A; stroke-width: 2; }
    </style>
    <marker id="arrowhead" markerWidth="10" markerHeight="10" refX="9" refY="3" orient="auto">
      <polygon points="0 0, 10 3, 0 6" fill="#FFD60A"/>
    </marker>
  </defs>

  <!-- DIAGRAM 1: Mold Exposure Mechanism Flowchart -->
  <g id="mold-flowchart" transform="translate(0, 0)">
    <text x="200" y="30" class="diagram-label" font-size="16" font-weight="bold">MOLD EXPOSURE MECHANISM</text>
    
    <!-- Step 1: Indoor Mold -->
    <circle cx="100" cy="80" r="30" class="step-circle"/>
    <text x="75" y="85" class="diagram-text" font-size="11">Indoor</text>
    <text x="80" y="98" class="diagram-text" font-size="11">Mold</text>
    
    <!-- Arrow 1 -->
    <path d="M 130 80 L 170 80" class="diagram-arrow"/>
    
    <!-- Step 2: Mycotoxins -->
    <circle cx="200" cy="80" r="30" class="step-circle"/>
    <text x="180" y="85" class="diagram-text" font-size="11">Myco-</text>
    <text x="175" y="98" class="diagram-text" font-size="11">toxins</text>
    
    <!-- Arrow 2 -->
    <path d="M 230 80 L 270 80" class="diagram-arrow"/>
    
    <!-- Step 3: Inflammation -->
    <circle cx="300" cy="80" r="30" class="step-circle"/>
    <text x="280" y="85" class="diagram-text" font-size="11">Inflam-</text>
    <text x="275" y="98" class="diagram-text" font-size="11">mation</text>
    
    <!-- Arrow 3 -->
    <path d="M 330 80 L 370 80" class="diagram-arrow"/>
    
    <!-- Step 4: Symptoms -->
    <circle cx="400" cy="80" r="30" class="step-circle"/>
    <text x="385" y="85" class="diagram-text" font-size="11">Symp-</text>
    <text x="380" y="98" class="diagram-text" font-size="11">toms</text>
    
    <!-- Detailed boxes below -->
    <rect x="20" y="140" width="80" height="60" class="diagram-box" rx="4"/>
    <text x="30" y="160" class="diagram-label">Damp areas</text>
    <text x="30" y="175" class="diagram-text" font-size="10">Bathrooms</text>
    <text x="30" y="187" class="diagram-text" font-size="10">Basements</text>
    
    <rect x="120" y="140" width="80" height="60" class="diagram-box" rx="4"/>
    <text x="130" y="160" class="diagram-label">Aflatoxins</text>
    <text x="130" y="175" class="diagram-text" font-size="10">Ochratoxin</text>
    <text x="130" y="187" class="diagram-text" font-size="10">Trichothecenes</text>
    
    <rect x="220" y="140" width="80" height="60" class="diagram-box" rx="4"/>
    <text x="230" y="160" class="diagram-label">Cytokine</text>
    <text x="230" y="175" class="diagram-text" font-size="10">Release</text>
    <text x="230" y="187" class="diagram-text" font-size="10">Cascade</text>
    
    <rect x="320" y="140" width="80" height="60" class="diagram-box" rx="4"/>
    <text x="330" y="160" class="diagram-label">Brain fog</text>
    <text x="330" y="175" class="diagram-text" font-size="10">Joint pain</text>
    <text x="330" y="187" class="diagram-text" font-size="10">Fatigue</text>
  </g>

  <!-- DIAGRAM 2: CCI/Upper Cervical Anatomy -->
  <g id="cci-anatomy" transform="translate(500, 0)">
    <text x="100" y="30" class="diagram-label" font-size="16" font-weight="bold">CCI ANATOMY</text>
    
    <!-- C1 (Atlas) -->
    <circle cx="150" cy="80" r="25" class="step-circle"/>
    <text x="135" y="85" class="diagram-label">C1</text>
    <text x="125" y="100" class="diagram-text" font-size="9">Atlas</text>
    
    <!-- Arrow down -->
    <path d="M 150 105 L 150 130" class="diagram-arrow"/>
    
    <!-- C2 (Axis) -->
    <circle cx="150" cy="160" r="25" class="step-circle"/>
    <text x="135" y="165" class="diagram-label">C2</text>
    <text x="125" y="180" class="diagram-text" font-size="9">Axis</text>
    
    <!-- Vagus Nerve connection -->
    <path d="M 175 80 Q 220 80 240 100" class="diagram-line" stroke-dasharray="5,5"/>
    <circle cx="240" cy="100" r="20" class="diagram-box"/>
    <text x="225" y="105" class="diagram-label" font-size="10">Vagus</text>
    <text x="220" y="118" class="diagram-text" font-size="9">Nerve</text>
    
    <!-- Misalignment indicator -->
    <path d="M 150 80 L 165 70" class="diagram-line" stroke-width="3"/>
    <text x="170" y="65" class="diagram-label" font-size="10">Subluxation</text>
    
    <!-- Effects box -->
    <rect x="50" y="220" width="200" height="80" class="diagram-box" rx="4"/>
    <text x="60" y="240" class="diagram-label">EFFECTS OF MISALIGNMENT:</text>
    <text x="60" y="258" class="diagram-text" font-size="10">• Vagal dysfunction</text>
    <text x="60" y="273" class="diagram-text" font-size="10">• Reduced parasympathetic tone</text>
    <text x="60" y="288" class="diagram-text" font-size="10">• Impaired recovery response</text>
  </g>

  <!-- DIAGRAM 3: Peptide Protocol Timeline (30-Day Cycle) -->
  <g id="peptide-timeline" transform="translate(0, 350)">
    <text x="200" y="30" class="diagram-label" font-size="16" font-weight="bold">30-DAY PEPTIDE PROTOCOL CYCLE</text>
    
    <!-- Week 1 -->
    <rect x="20" y="60" width="80" height="80" class="diagram-box" rx="4"/>
    <text x="35" y="80" class="diagram-label">WEEK 1</text>
    <text x="25" y="100" class="diagram-text" font-size="9">BPC-157</text>
    <text x="25" y="115" class="diagram-text" font-size="9">TB-500</text>
    <text x="25" y="130" class="diagram-text" font-size="9">Daily</text>
    
    <!-- Arrow -->
    <path d="M 100 100 L 130 100" class="diagram-arrow"/>
    
    <!-- Week 2 -->
    <rect x="130" y="60" width="80" height="80" class="diagram-box" rx="4"/>
    <text x="145" y="80" class="diagram-label">WEEK 2</text>
    <text x="135" y="100" class="diagram-text" font-size="9">GHK-Cu</text>
    <text x="135" y="115" class="diagram-text" font-size="9">Collagen</text>
    <text x="135" y="130" class="diagram-text" font-size="9">Daily</text>
    
    <!-- Arrow -->
    <path d="M 210 100 L 240 100" class="diagram-arrow"/>
    
    <!-- Week 3-4 -->
    <rect x="240" y="60" width="80" height="80" class="diagram-box" rx="4"/>
    <text x="255" y="80" class="diagram-label">WEEK 3-4</text>
    <text x="245" y="100" class="diagram-text" font-size="9">Omega-3</text>
    <text x="245" y="115" class="diagram-text" font-size="9">Magnesium</text>
    <text x="245" y="130" class="diagram-text" font-size="9">Daily</text>
    
    <!-- Dosing markers -->
    <line x1="30" y1="160" x2="30" y2="170" class="diagram-line"/>
    <text x="20" y="185" class="diagram-text" font-size="8">AM</text>
    
    <line x1="70" y1="160" x2="70" y2="170" class="diagram-line"/>
    <text x="60" y="185" class="diagram-text" font-size="8">PM</text>
    
    <line x1="140" y1="160" x2="140" y2="170" class="diagram-line"/>
    <text x="130" y="185" class="diagram-text" font-size="8">AM</text>
    
    <line x1="180" y1="160" x2="180" y2="170" class="diagram-line"/>
    <text x="170" y="185" class="diagram-text" font-size="8">PM</text>
    
    <!-- Recovery note -->
    <rect x="20" y="210" width="300" height="50" class="diagram-box" rx="4"/>
    <text x="30" y="230" class="diagram-label">RECOVERY CYCLE:</text>
    <text x="30" y="250" class="diagram-text" font-size="10">Repeat every 30 days | Adjust based on response | Monitor inflammation markers</text>
  </g>

  <!-- DIAGRAM 4: What Doctors Miss - Training Gaps -->
  <g id="doctors-miss" transform="translate(500, 350)">
    <text x="100" y="30" class="diagram-label" font-size="16" font-weight="bold">WHAT DOCTORS MISS</text>
    
    <!-- Gap 1 -->
    <rect x="20" y="60" width="150" height="70" class="diagram-box" rx="4"/>
    <text x="30" y="80" class="diagram-label" font-size="11">GAP 1</text>
    <text x="30" y="98" class="diagram-text" font-size="9">Nutrition &amp;</text>
    <text x="30" y="112" class="diagram-text" font-size="9">Lifestyle factors</text>
    <text x="30" y="125" class="diagram-text" font-size="9">underemphasized</text>
    
    <!-- Gap 2 -->
    <rect x="180" y="60" width="150" height="70" class="diagram-box" rx="4"/>
    <text x="190" y="80" class="diagram-label" font-size="11">GAP 2</text>
    <text x="190" y="98" class="diagram-text" font-size="9">Root cause</text>
    <text x="190" y="112" class="diagram-text" font-size="9">investigation</text>
    <text x="190" y="125" class="diagram-text" font-size="9">overshadowed</text>
    
    <!-- Gap 3 -->
    <rect x="340" y="60" width="150" height="70" class="diagram-box" rx="4"/>
    <text x="350" y="80" class="diagram-label" font-size="11">GAP 3</text>
    <text x="350" y="98" class="diagram-text" font-size="9">Time constraints</text>
    <text x="350" y="112" class="diagram-text" font-size="9">limit personalized,</text>
    <text x="350" y="125" class="diagram-text" font-size="9">preventive care</text>
    
    <!-- Impact -->
    <rect x="20" y="160" width="470" height="80" class="diagram-box" rx="4"/>
    <text x="30" y="180" class="diagram-label">IMPACT ON PATIENT OUTCOMES:</text>
    <text x="30" y="200" class="diagram-text" font-size="10">Delayed diagnosis • Symptom management instead of root cause • Patient frustration • Preventable suffering</text>
    <text x="30" y="220" class="diagram-text" font-size="10">SOLUTION: Self-advocacy, testing, and evidence-based protocols</text>
  </g>

</svg>
